<svg width="39" height="39" viewBox="0 0 39 39" fill="none" xmlns="http://www.w3.org/2000/svg">
<path d="M9.59998 0.600098C4.63977 0.600098 0.599976 4.6399 0.599976 9.6001V29.4001C0.599976 34.3603 4.63977 38.4001 9.59998 38.4001H29.4C34.3602 38.4001 38.4 34.3603 38.4 29.4001V9.6001C38.4 4.6399 34.3602 0.600098 29.4 0.600098H9.59998ZM8.69998 11.4001H30.3C30.462 11.4001 30.6148 11.4184 30.7588 11.4634L21.9117 20.3017C20.5797 21.6337 18.4115 21.6337 17.0795 20.3017L8.24119 11.4634C8.38519 11.4184 8.53798 11.4001 8.69998 11.4001ZM6.96326 12.7413L13.7308 19.5001L6.96326 26.2589C6.91826 26.1149 6.89998 25.9621 6.89998 25.8001V13.2001C6.89998 13.0381 6.91826 12.8853 6.96326 12.7413ZM32.0367 12.7413C32.0817 12.8853 32.1 13.0381 32.1 13.2001V25.8001C32.1 25.9621 32.0817 26.1149 32.0367 26.2589L25.2603 19.5001L32.0367 12.7413ZM15 20.7692L15.8015 21.5796C16.8185 22.5966 18.1592 23.1001 19.4912 23.1001C20.8322 23.1001 22.1638 22.5966 23.1808 21.5796L23.9912 20.7692L30.7588 27.5368C30.6148 27.5818 30.462 27.6001 30.3 27.6001H8.69998C8.53798 27.6001 8.38519 27.5818 8.24119 27.5368L15 20.7692Z" fill="#0D364A"/>
</svg>
