<svg width="39" height="39" viewBox="0 0 39 39" fill="none" xmlns="http://www.w3.org/2000/svg">
<path d="M9.59998 0.591309C4.63977 0.591309 0.599976 4.63111 0.599976 9.59131V29.3913C0.599976 34.3515 4.63977 38.3913 9.59998 38.3913H29.4C34.3602 38.3913 38.4 34.3515 38.4 29.3913V9.59131C38.4 4.63111 34.3602 0.591309 29.4 0.591309H9.59998ZM13.2052 7.82998C13.7704 7.85428 14.2895 8.17273 14.6027 8.66143C14.9591 9.21763 15.5122 10.0808 16.2322 11.2067C16.8892 12.2336 16.935 13.56 16.3482 14.631L15.0299 16.5065C14.6735 17.0141 14.6024 17.6638 14.8418 18.2362C15.2144 19.1272 15.9367 20.4966 17.2201 21.78C18.5035 23.0634 19.8728 23.7857 20.7638 24.1583C21.3362 24.3977 21.9859 24.3266 22.4935 23.9702L24.3691 22.6519C25.4401 22.0651 26.7664 22.1118 27.7933 22.7679C28.9192 23.4879 29.7824 24.041 30.3386 24.3974C30.8273 24.7106 31.1458 25.2296 31.1701 25.7948C31.3087 29.0024 28.8237 30.3019 28.101 30.3019C27.6006 30.3019 21.5847 30.9856 14.7996 24.2005C8.01448 17.4154 8.69822 11.3995 8.69822 10.8991C8.69822 10.1764 9.99765 7.69138 13.2052 7.82998Z" fill="#0D364A"/>
</svg>
